<?xml version="1.0" encoding="UTF-8"?>
<svg id="Capa_1" data-name="Capa 1" xmlns="http://www.w3.org/2000/svg" viewBox="0 0 192.05 265.47">
  <defs>
    <style>
      .cls-1 {
        fill: #fff;
      }
    </style>
  </defs>
  <g>
    <path class="cls-1" d="m17.35,206.36h8.96v39.81h-8.96v-39.81Z"/>
    <path class="cls-1" d="m77.58,226.23c0,3.45-.54,6.45-1.61,9.02-1.07,2.57-2.59,4.69-4.57,6.38-1.97,1.69-4.38,2.95-7.21,3.79-2.83.84-6.01,1.26-9.54,1.26-1.61,0-3.49-.07-5.63-.2-2.14-.13-4.25-.41-6.32-.83v-38.77c2.07-.38,4.22-.64,6.46-.78,2.24-.13,4.16-.2,5.77-.2,3.41,0,6.5.38,9.28,1.15,2.78.77,5.16,1.97,7.15,3.62,1.99,1.65,3.52,3.75,4.59,6.32,1.07,2.57,1.61,5.65,1.61,9.25Zm-25.91,12.64c.42.04.91.07,1.47.09.55.02,1.22.03,1.98.03,4.48,0,7.8-1.13,9.97-3.39,2.16-2.26,3.25-5.38,3.25-9.36s-1.03-7.33-3.1-9.48c-2.07-2.14-5.34-3.22-9.82-3.22-.61,0-1.24,0-1.9.03-.65.02-1.26.07-1.84.14v25.16Z"/>
    <path class="cls-1" d="m103.74,205.9c5.97,0,10.55,1.06,13.73,3.19,3.18,2.13,4.77,5.43,4.77,9.91,0,2.8-.64,5.07-1.92,6.81-1.28,1.74-3.13,3.11-5.54,4.11.8,1,1.65,2.13,2.53,3.42.88,1.28,1.75,2.62,2.61,4.02.86,1.4,1.69,2.85,2.5,4.37s1.55,3,2.24,4.45h-10.02c-.73-1.3-1.47-2.62-2.22-3.96-.75-1.34-1.52-2.64-2.31-3.91-.79-1.26-1.57-2.46-2.34-3.59-.77-1.13-1.54-2.15-2.31-3.07h-4.42v14.53h-8.96v-39.23c1.95-.38,3.97-.65,6.06-.8,2.09-.15,3.95-.23,5.6-.23Zm.52,7.64c-.65,0-1.24.02-1.75.06-.52.04-1.01.08-1.47.11v10.8h2.53c3.37,0,5.78-.42,7.24-1.26,1.45-.84,2.18-2.28,2.18-4.31s-.74-3.34-2.21-4.16c-1.47-.82-3.65-1.23-6.52-1.23Z"/>
    <path class="cls-1" d="m174.7,226.23c0,3.41-.51,6.4-1.52,8.99-1.01,2.59-2.4,4.75-4.16,6.49-1.76,1.74-3.86,3.05-6.29,3.93-2.43.88-5.05,1.32-7.84,1.32s-5.29-.44-7.7-1.32c-2.41-.88-4.52-2.19-6.32-3.93s-3.22-3.91-4.25-6.49c-1.03-2.58-1.55-5.58-1.55-8.99s.54-6.4,1.61-8.99c1.07-2.58,2.52-4.76,4.34-6.52,1.82-1.76,3.92-3.08,6.32-3.96,2.39-.88,4.91-1.32,7.55-1.32s5.28.44,7.7,1.32c2.41.88,4.52,2.2,6.32,3.96,1.8,1.76,3.22,3.93,4.25,6.52,1.03,2.59,1.55,5.58,1.55,8.99Zm-30.39,0c0,1.95.24,3.71.72,5.28.48,1.57,1.17,2.92,2.07,4.05.9,1.13,2,2,3.3,2.61,1.3.61,2.79.92,4.48.92s3.13-.31,4.45-.92c1.32-.61,2.43-1.48,3.33-2.61.9-1.13,1.59-2.48,2.07-4.05.48-1.57.72-3.33.72-5.28s-.24-3.72-.72-5.31c-.48-1.59-1.17-2.95-2.07-4.08-.9-1.13-2.01-2-3.33-2.61-1.32-.61-2.81-.92-4.45-.92s-3.18.32-4.48.95-2.4,1.51-3.3,2.64c-.9,1.13-1.59,2.49-2.07,4.08-.48,1.59-.72,3.34-.72,5.26Z"/>
  </g>
  <g>
    <path class="cls-1" d="m104.71,119.56c.02-.64.02-1.27,0-1.9h.05c1.75-35.75,47.96-49.3,68.83-20.71-.72-2.24-1.67-4.61-2.53-6.81,3.4-2.23,8.51-5.58,11.94-7.83-4.02.93-10.24,2.36-14.17,3.28-2.56-4.57-5.5-8.95-8.84-12.98,2.89-6.28,11.01-23.88,11.55-25.06l-25.51,12.41c-3.64-2.45-7.6-4.65-11.55-6.57,1.03-4.36,2.65-11.46,3.68-15.9-2.3,3.5-6.31,9.64-9.02,13.75h0s0,0,0,0c-4.72-1.55-9.72-2.82-14.62-3.54l-9.95-27.5-9.82,27.5c-4.93.72-9.88,1.98-14.61,3.55-2.32-3.52-7.74-11.8-9.03-13.76,1.12,4.84,2.68,11.6,3.68,15.93h0c-3.94,1.93-7.88,4.12-11.51,6.56l-25.55-12.43c2.38,5.17,8.94,19.4,11.57,25.1-3.32,4.04-6.26,8.39-8.82,12.95-3.94-.93-10.19-2.36-14.21-3.29,3.57,2.34,8.51,5.6,11.97,7.85-2.25,5.46-4.08,11.19-5.13,17-7.65,2.74-16.56,5.91-24.04,8.58,6.93,2.55,15.85,5.49,23.11,8.4.66,3.83.93,7.78,1.87,11.55,21.19,24.69,63.04,16.01,70.67-16.14Z"/>
    <path class="cls-1" d="m174.19,105.48c-7.13-16.43-26.77-24.34-43.41-18.07-11.68,4.27-20.61,15.47-21.98,27.93-1.7,12.05,8.29,23.48,20.72,23.29,11.28.23,21.22-9.7,20.98-20.98h3.82c-.34,27.46-37.87,34.16-47.9,9-10.79,27.95-47.93,35.98-70.29,16.37,18.92,54.89,91.67,66.31,126.52,20.11,11.3-15.03,19.09-39.39,11.55-57.66Z"/>
  </g>
</svg>