<?xml version="1.0" encoding="UTF-8"?>
<svg id="Capa_1" data-name="Capa 1" xmlns="http://www.w3.org/2000/svg" viewBox="0 0 212.85 212.85">
  <defs>
    <style>
      .cls-1 {
        fill: none;
        stroke: #252772;
        stroke-miterlimit: 10;
        stroke-width: .25px;
      }

      .cls-2 {
        fill: #1d1d1b;
      }
    </style>
  </defs>
  <g>
    <path class="cls-2" d="m116.71,122.41c.03-.76.02-1.5,0-2.25h.06c2.07-42.32,56.77-58.37,81.48-24.51-.85-2.65-1.97-5.46-3-8.06,4.03-2.63,10.07-6.61,14.13-9.27-4.76,1.1-12.13,2.79-16.77,3.88-3.03-5.41-6.51-10.59-10.46-15.37,3.42-7.43,13.03-28.27,13.68-29.67l-30.2,14.69c-4.31-2.9-8.99-5.5-13.68-7.78,1.21-5.17,3.14-13.56,4.35-18.82-2.72,4.14-7.47,11.42-10.68,16.28h0s0,0,0,0c-5.59-1.83-11.51-3.34-17.31-4.19l-11.78-32.55-11.63,32.55c-5.83.86-11.7,2.35-17.29,4.2-2.75-4.17-9.17-13.97-10.69-16.29,1.32,5.73,3.17,13.73,4.35,18.86h0c-4.66,2.28-9.33,4.87-13.62,7.77l-30.25-14.71c2.82,6.12,10.58,22.96,13.7,29.72-3.92,4.78-7.42,9.94-10.44,15.33-4.66-1.1-12.06-2.79-16.83-3.9,4.22,2.77,10.08,6.62,14.17,9.3-2.67,6.46-4.83,13.25-6.07,20.13-9.06,3.24-19.6,6.99-28.46,10.16,8.21,3.01,18.77,6.5,27.36,9.94.78,4.53,1.1,9.21,2.22,13.68,25.09,29.23,74.63,18.95,83.66-19.1Z"/>
    <path class="cls-2" d="m198.96,105.75c-8.44-19.45-31.7-28.81-51.39-21.39-13.83,5.05-24.4,18.31-26.03,33.06-2.02,14.26,9.82,27.8,24.53,27.58,13.35.28,25.12-11.49,24.84-24.84h4.52c-.4,32.51-44.83,40.44-56.71,10.66-12.77,33.08-56.74,42.59-83.2,19.38,22.39,64.98,108.52,78.5,149.77,23.81,13.38-17.79,22.6-46.63,13.68-68.26Z"/>
  </g>
  <rect class="cls-1" x=".12" y=".12" width="212.6" height="212.6"/>
</svg>