<?xml version="1.0" encoding="UTF-8"?>
<svg id="Capa_1" data-name="Capa 1" xmlns="http://www.w3.org/2000/svg" viewBox="0 0 368.75 127.86">
  <defs>
    <style>
      .cls-1 {
        fill: none;
        stroke: #252772;
        stroke-miterlimit: 10;
        stroke-width: .25px;
      }

      .cls-2 {
        fill: #1d1d1b;
      }
    </style>
  </defs>
  <rect class="cls-1" x=".12" y=".12" width="368.5" height="127.61"/>
  <g>
    <g>
      <path class="cls-2" d="m136.22,59.2h12.23v54.34h-12.23v-54.34Z"/>
      <path class="cls-2" d="m218.43,85.62c0,4.7-.73,8.81-2.2,12.31-1.46,3.5-3.54,6.4-6.23,8.7-2.69,2.3-5.97,4.03-9.84,5.18-3.87,1.15-8.21,1.73-13.02,1.73-2.2,0-4.76-.09-7.68-.27-2.93-.18-5.8-.56-8.62-1.14v-52.93c2.82-.52,5.76-.87,8.82-1.06,3.06-.18,5.68-.27,7.88-.27,4.65,0,8.87.52,12.66,1.57,3.79,1.05,7.04,2.69,9.76,4.94,2.72,2.25,4.81,5.12,6.27,8.63,1.46,3.5,2.2,7.71,2.2,12.62Zm-35.36,17.25c.57.05,1.24.09,2,.12.76.03,1.66.04,2.7.04,6.12,0,10.65-1.54,13.6-4.63,2.95-3.08,4.43-7.34,4.43-12.78s-1.41-10.01-4.23-12.94c-2.82-2.93-7.29-4.39-13.41-4.39-.84,0-1.7.01-2.59.04-.89.03-1.73.09-2.51.2v34.35Z"/>
      <path class="cls-2" d="m254.15,58.57c8.16,0,14.4,1.45,18.74,4.35,4.34,2.9,6.51,7.41,6.51,13.53,0,3.82-.88,6.91-2.63,9.29-1.75,2.38-4.27,4.25-7.57,5.61,1.1,1.36,2.25,2.91,3.45,4.67,1.2,1.75,2.39,3.58,3.57,5.49,1.18,1.91,2.31,3.9,3.41,5.96s2.12,4.09,3.06,6.08h-13.67c-1-1.78-2.01-3.58-3.03-5.41-1.02-1.83-2.07-3.61-3.15-5.33-1.08-1.72-2.14-3.36-3.19-4.9-1.05-1.54-2.1-2.94-3.15-4.19h-6.04v19.84h-12.23v-53.56c2.67-.52,5.42-.89,8.27-1.1,2.85-.21,5.4-.31,7.65-.31Zm.71,10.43c-.89,0-1.69.03-2.39.08-.71.05-1.37.1-2,.16v14.74h3.45c4.6,0,7.89-.58,9.88-1.73,1.99-1.15,2.98-3.11,2.98-5.88s-1.01-4.56-3.02-5.68c-2.01-1.12-4.98-1.69-8.9-1.69Z"/>
      <path class="cls-2" d="m350.04,85.74c0,4.57-.68,8.59-2.04,12.05-1.36,3.47-3.22,6.37-5.58,8.7-2.36,2.34-5.17,4.09-8.43,5.27-3.26,1.18-6.76,1.77-10.51,1.77s-7.09-.59-10.32-1.77c-3.23-1.18-6.06-2.94-8.47-5.27-2.41-2.34-4.31-5.24-5.7-8.7-1.39-3.46-2.08-7.48-2.08-12.05s.72-8.59,2.16-12.05c1.44-3.46,3.38-6.38,5.81-8.74,2.44-2.36,5.26-4.13,8.47-5.31,3.21-1.18,6.58-1.77,10.13-1.77s7.08.59,10.32,1.77c3.23,1.18,6.06,2.95,8.47,5.31,2.41,2.36,4.31,5.27,5.7,8.74,1.39,3.47,2.08,7.48,2.08,12.05Zm-40.74,0c0,2.62.32,4.98.96,7.08.64,2.11,1.56,3.91,2.77,5.43,1.21,1.52,2.68,2.68,4.43,3.5,1.75.82,3.75,1.23,6.01,1.23s4.2-.41,5.97-1.23c1.77-.82,3.26-1.99,4.47-3.5,1.21-1.51,2.13-3.32,2.77-5.43.64-2.1.96-4.47.96-7.08s-.32-4.99-.96-7.12c-.64-2.13-1.57-3.95-2.77-5.47-1.21-1.51-2.69-2.68-4.47-3.5-1.77-.82-3.76-1.23-5.97-1.23s-4.26.42-6.01,1.27-3.22,2.03-4.43,3.54c-1.21,1.52-2.13,3.34-2.77,5.47-.64,2.13-.96,4.48-.96,7.05Z"/>
    </g>
    <g>
      <path class="cls-2" d="m73.98,71.73c.01-.37.01-.73,0-1.1h.03c1.01-20.65,27.71-28.49,39.77-11.96-.42-1.29-.96-2.66-1.46-3.94,1.97-1.29,4.92-3.23,6.9-4.53-2.32.54-5.92,1.36-8.19,1.9-1.48-2.64-3.18-5.17-5.11-7.5,1.67-3.63,6.36-13.8,6.67-14.48l-14.74,7.17c-2.11-1.42-4.39-2.69-6.67-3.8.59-2.52,1.53-6.62,2.12-9.19-1.33,2.02-3.65,5.57-5.21,7.95h0s0,0,0,0c-2.73-.89-5.62-1.63-8.45-2.04l-5.75-15.89-5.67,15.89c-2.85.42-5.71,1.14-8.44,2.05-1.34-2.04-4.47-6.82-5.22-7.95.65,2.8,1.55,6.7,2.12,9.21h0c-2.28,1.11-4.55,2.38-6.65,3.79l-14.76-7.18c1.38,2.99,5.16,11.21,6.69,14.5-1.92,2.33-3.62,4.85-5.09,7.48-2.28-.53-5.89-1.36-8.21-1.9,2.06,1.35,4.92,3.23,6.92,4.54-1.3,3.15-2.36,6.47-2.96,9.82-4.42,1.58-9.57,3.41-13.89,4.96,4.01,1.47,9.16,3.17,13.36,4.85.38,2.21.54,4.5,1.08,6.67,12.24,14.27,36.43,9.25,40.83-9.32Z"/>
      <path class="cls-2" d="m114.12,63.6c-4.12-9.49-15.47-14.06-25.08-10.44-6.75,2.47-11.91,8.94-12.7,16.14-.98,6.96,4.79,13.57,11.97,13.46,6.52.14,12.26-5.61,12.12-12.12h2.2c-.19,15.87-21.88,19.74-27.68,5.2-6.23,16.15-27.69,20.79-40.61,9.46,10.93,31.72,52.97,38.31,73.1,11.62,6.53-8.69,11.03-22.76,6.67-33.31Z"/>
    </g>
  </g>
</svg>